<mxfile host="app.diagrams.net" agent="Mozilla/5.0 (Windows NT 10.0; Win64; x64) AppleWebKit/537.36 (KHTML, like Gecko) Chrome/135.0.0.0 Safari/537.36" version="26.2.13" pages="2">
  <diagram id="FZimzOWbiY0pmrnXrLaN" name="DFD контекстная">
    <mxGraphModel dx="2255" dy="1994" grid="1" gridSize="10" guides="1" tooltips="1" connect="1" arrows="1" fold="1" page="1" pageScale="1" pageWidth="827" pageHeight="1169" math="0" shadow="0">
      <root>
        <mxCell id="0" />
        <mxCell id="1" parent="0" />
        <mxCell id="komNeLyyzliTDDAAMzvB-7" value="&lt;font style=&quot;font-size: 18px;&quot;&gt;Элементы для построения&amp;nbsp;&lt;span style=&quot;caret-color: rgb(0, 0, 0); text-align: start; text-size-adjust: auto;&quot; data-reactroot=&quot;&quot; class=&quot;notion-enable-hover&quot; data-token-index=&quot;0&quot;&gt;контекстной модели потоков данных&lt;/span&gt;&lt;/font&gt;" style="rounded=1;whiteSpace=wrap;html=1;verticalAlign=top;" parent="1" vertex="1">
          <mxGeometry x="10" y="-1120" width="470" height="260" as="geometry" />
        </mxCell>
        <mxCell id="komNeLyyzliTDDAAMzvB-3" value="Врач" style="html=1;dashed=0;whitespace=wrap;" parent="1" vertex="1">
          <mxGeometry x="20" y="-470" width="100" height="50" as="geometry" />
        </mxCell>
        <mxCell id="komNeLyyzliTDDAAMzvB-4" value="Лаборатория" style="html=1;dashed=0;whitespace=wrap;" parent="1" vertex="1">
          <mxGeometry x="425" y="-290" width="100" height="50" as="geometry" />
        </mxCell>
        <mxCell id="komNeLyyzliTDDAAMzvB-5" value="Пациент" style="html=1;dashed=0;whitespace=wrap;" parent="1" vertex="1">
          <mxGeometry x="840" y="-490" width="180" height="90" as="geometry" />
        </mxCell>
        <mxCell id="komNeLyyzliTDDAAMzvB-8" value="&lt;h1&gt;&lt;font style=&quot;font-size: 40px;&quot;&gt;Задание&lt;/font&gt;&lt;/h1&gt;&lt;font style=&quot;font-size: 20px;&quot;&gt;Составьте контекстную модель потоков данных из представленных элементов&lt;br&gt;&lt;/font&gt;&lt;p style=&quot;font-size: 20px;&quot;&gt;&lt;font style=&quot;font-size: 20px;&quot;&gt;Как выполнить задание:&lt;/font&gt;&lt;/p&gt;&lt;p style=&quot;font-size: 20px;&quot;&gt;&lt;font style=&quot;font-size: 20px;&quot;&gt;1. Просмотрите MVP, которое вы составили, для изменений которые будут производиться в рамках этих доработок вам необходимо составить контекстную модель потоков данных.&amp;nbsp;&lt;/font&gt;&lt;/p&gt;&lt;p style=&quot;font-size: 20px;&quot;&gt;2. Просмотрите доступные элементы (процесс и внешние сущности) для составления модели.&lt;span style=&quot;background-color: initial;&quot;&gt;&amp;nbsp;Корректно расставьте и соедините элементы потоками данных и подпишите получившиеся потоки.&lt;/span&gt;&lt;/p&gt;&lt;p style=&quot;font-size: 20px;&quot;&gt;&lt;font style=&quot;font-size: 20px;&quot;&gt;3. Если вам не хватает информации в задании, то вы можете ее самостоятельно добавить в виде допущения&lt;/font&gt;&lt;/p&gt;&lt;p style=&quot;font-size: 20px;&quot;&gt;&lt;i&gt;Помните, что вы всегда можете оставить дополнительную информацию со своими размышлениями ревьюеру в виде пометок. Просто возьмите одну из карточек ниже.&amp;nbsp;&lt;/i&gt;&lt;/p&gt;&lt;p style=&quot;font-size: 20px;&quot;&gt;&lt;font style=&quot;font-size: 20px;&quot;&gt;4. Когда модель потоков данных будет готова, переходите к вкладке №2 для составления логических моделей потоков данных 1 уровня.&lt;/font&gt;&lt;/p&gt;" style="text;html=1;strokeColor=#82b366;fillColor=#d5e8d4;spacing=5;spacingTop=-20;whiteSpace=wrap;overflow=hidden;rounded=0;fontSize=16;" parent="1" vertex="1">
          <mxGeometry x="-770" y="-1120" width="740" height="610" as="geometry" />
        </mxCell>
        <mxCell id="komNeLyyzliTDDAAMzvB-9" value="&lt;h1 style=&quot;font-size: 20px;&quot;&gt;&lt;font style=&quot;font-size: 20px;&quot;&gt;Заметка для ревьюера&lt;/font&gt;&lt;/h1&gt;&lt;p style=&quot;font-size: 20px;&quot;&gt;&lt;font style=&quot;font-size: 20px;&quot;&gt;Текст заметки&lt;/font&gt;&lt;/p&gt;" style="text;html=1;strokeColor=#d6b656;fillColor=#fff2cc;spacing=5;spacingTop=-20;whiteSpace=wrap;overflow=hidden;rounded=0;fontSize=20;" parent="1" vertex="1">
          <mxGeometry x="-770" y="-450" width="370" height="170" as="geometry" />
        </mxCell>
        <mxCell id="komNeLyyzliTDDAAMzvB-10" value="&lt;h1 style=&quot;font-size: 20px;&quot;&gt;&lt;font style=&quot;font-size: 20px;&quot;&gt;Заметка для ревьюера&lt;/font&gt;&lt;/h1&gt;&lt;p style=&quot;font-size: 20px;&quot;&gt;&lt;font style=&quot;font-size: 20px;&quot;&gt;Текст заметки&lt;/font&gt;&lt;/p&gt;" style="text;html=1;strokeColor=#d6b656;fillColor=#fff2cc;spacing=5;spacingTop=-20;whiteSpace=wrap;overflow=hidden;rounded=0;fontSize=20;" parent="1" vertex="1">
          <mxGeometry x="-760" y="-440" width="370" height="170" as="geometry" />
        </mxCell>
        <mxCell id="komNeLyyzliTDDAAMzvB-11" value="&lt;h1 style=&quot;font-size: 20px;&quot;&gt;&lt;font style=&quot;font-size: 20px;&quot;&gt;Заметка для ревьюера&lt;/font&gt;&lt;/h1&gt;&lt;p style=&quot;font-size: 20px;&quot;&gt;&lt;font style=&quot;font-size: 20px;&quot;&gt;Текст заметки&lt;/font&gt;&lt;/p&gt;" style="text;html=1;strokeColor=#d6b656;fillColor=#fff2cc;spacing=5;spacingTop=-20;whiteSpace=wrap;overflow=hidden;rounded=0;fontSize=20;" parent="1" vertex="1">
          <mxGeometry x="-750" y="-430" width="370" height="170" as="geometry" />
        </mxCell>
        <mxCell id="komNeLyyzliTDDAAMzvB-12" value="&lt;h1 style=&quot;font-size: 20px;&quot;&gt;&lt;font style=&quot;font-size: 20px;&quot;&gt;Заметка для ревьюера&lt;/font&gt;&lt;/h1&gt;&lt;p style=&quot;font-size: 20px;&quot;&gt;&lt;font style=&quot;font-size: 20px;&quot;&gt;Текст заметки&lt;/font&gt;&lt;/p&gt;" style="text;html=1;strokeColor=#d6b656;fillColor=#fff2cc;spacing=5;spacingTop=-20;whiteSpace=wrap;overflow=hidden;rounded=0;fontSize=20;" parent="1" vertex="1">
          <mxGeometry x="-740" y="-420" width="370" height="170" as="geometry" />
        </mxCell>
        <mxCell id="komNeLyyzliTDDAAMzvB-13" value="&lt;h1 style=&quot;font-size: 20px;&quot;&gt;&lt;font style=&quot;font-size: 20px;&quot;&gt;Заметка для ревьюера&lt;/font&gt;&lt;/h1&gt;&lt;p style=&quot;font-size: 20px;&quot;&gt;&lt;font style=&quot;font-size: 20px;&quot;&gt;Текст заметки&lt;/font&gt;&lt;/p&gt;" style="text;html=1;strokeColor=#d6b656;fillColor=#fff2cc;spacing=5;spacingTop=-20;whiteSpace=wrap;overflow=hidden;rounded=0;fontSize=20;" parent="1" vertex="1">
          <mxGeometry x="-730" y="-410" width="370" height="170" as="geometry" />
        </mxCell>
        <mxCell id="rhUK0AfXt017CsrgmApv-1" value="0" style="swimlane;childLayout=stackLayout;horizontal=1;startSize=30;horizontalStack=0;rounded=1;fontSize=14;fontStyle=0;strokeWidth=1;resizeParent=0;resizeLast=1;shadow=0;dashed=0;align=center;fillColor=#FFFFFF;" parent="1" vertex="1">
          <mxGeometry x="400" y="-510" width="150" height="110" as="geometry" />
        </mxCell>
        <mxCell id="rhUK0AfXt017CsrgmApv-2" value="Приложение &quot;Вита&quot;" style="align=center;strokeColor=none;fillColor=none;spacingLeft=4;fontSize=12;verticalAlign=middle;resizable=0;rotatable=0;part=1;" parent="rhUK0AfXt017CsrgmApv-1" vertex="1">
          <mxGeometry y="30" width="150" height="80" as="geometry" />
        </mxCell>
        <mxCell id="-xv1wTOaCMGoX4qrAlVD-1" value="" style="endArrow=classic;html=1;rounded=0;edgeStyle=orthogonalEdgeStyle;curved=1;entryX=0.102;entryY=0.012;entryDx=0;entryDy=0;entryPerimeter=0;exitX=0.5;exitY=0;exitDx=0;exitDy=0;" parent="1" source="komNeLyyzliTDDAAMzvB-3" target="rhUK0AfXt017CsrgmApv-1" edge="1">
          <mxGeometry width="50" height="50" relative="1" as="geometry">
            <mxPoint x="74.00000000000018" y="-534.1999999999998" as="sourcePoint" />
            <mxPoint x="413.0500000000001" y="-574.6600000000001" as="targetPoint" />
            <Array as="points">
              <mxPoint x="70" y="-530" />
              <mxPoint x="413" y="-530" />
              <mxPoint x="413" y="-520" />
              <mxPoint x="415" y="-520" />
            </Array>
          </mxGeometry>
        </mxCell>
        <mxCell id="rqwDStogeKvwR1cn4bST-1" value="Назначение на обследование" style="edgeLabel;html=1;align=center;verticalAlign=middle;resizable=0;points=[];" parent="-xv1wTOaCMGoX4qrAlVD-1" connectable="0" vertex="1">
          <mxGeometry x="-0.199" y="2" relative="1" as="geometry">
            <mxPoint x="32" y="2" as="offset" />
          </mxGeometry>
        </mxCell>
        <mxCell id="rqwDStogeKvwR1cn4bST-2" value="" style="endArrow=classic;html=1;rounded=0;entryX=0.098;entryY=0.999;entryDx=0;entryDy=0;exitX=0.84;exitY=1.025;exitDx=0;exitDy=0;exitPerimeter=0;entryPerimeter=0;edgeStyle=orthogonalEdgeStyle;curved=1;" parent="1" edge="1">
          <mxGeometry width="50" height="50" relative="1" as="geometry">
            <mxPoint x="525" y="-397.91" as="sourcePoint" />
            <mxPoint x="856.6399999999999" y="-400.00000000000006" as="targetPoint" />
            <Array as="points">
              <mxPoint x="525" y="-380" />
              <mxPoint x="857" y="-380" />
            </Array>
          </mxGeometry>
        </mxCell>
        <mxCell id="rqwDStogeKvwR1cn4bST-3" value="&lt;div&gt;Назначение на обследование&lt;/div&gt;" style="edgeLabel;html=1;align=center;verticalAlign=middle;resizable=0;points=[];" parent="rqwDStogeKvwR1cn4bST-2" connectable="0" vertex="1">
          <mxGeometry x="0.0061" y="-5" relative="1" as="geometry">
            <mxPoint x="14" y="-5" as="offset" />
          </mxGeometry>
        </mxCell>
        <mxCell id="rqwDStogeKvwR1cn4bST-5" value="" style="endArrow=classic;html=1;rounded=0;exitX=0.731;exitY=-0.002;exitDx=0;exitDy=0;entryX=0.224;entryY=-0.002;entryDx=0;entryDy=0;entryPerimeter=0;exitPerimeter=0;edgeStyle=orthogonalEdgeStyle;curved=1;" parent="1" source="rhUK0AfXt017CsrgmApv-1" target="komNeLyyzliTDDAAMzvB-5" edge="1">
          <mxGeometry width="50" height="50" relative="1" as="geometry">
            <mxPoint x="430" y="-660" as="sourcePoint" />
            <mxPoint x="880" y="-560" as="targetPoint" />
            <Array as="points">
              <mxPoint x="510" y="-550" />
              <mxPoint x="880" y="-550" />
            </Array>
          </mxGeometry>
        </mxCell>
        <mxCell id="rqwDStogeKvwR1cn4bST-6" value="Расписание процедурного кабинета" style="edgeLabel;html=1;align=center;verticalAlign=middle;resizable=0;points=[];" parent="rqwDStogeKvwR1cn4bST-5" connectable="0" vertex="1">
          <mxGeometry x="-0.7269" y="2" relative="1" as="geometry">
            <mxPoint x="156" y="2" as="offset" />
          </mxGeometry>
        </mxCell>
        <mxCell id="rqwDStogeKvwR1cn4bST-7" value="" style="endArrow=classic;html=1;rounded=0;entryX=0.5;entryY=1;entryDx=0;entryDy=0;exitX=0.5;exitY=0;exitDx=0;exitDy=0;" parent="1" source="komNeLyyzliTDDAAMzvB-4" target="rhUK0AfXt017CsrgmApv-2" edge="1">
          <mxGeometry width="50" height="50" relative="1" as="geometry">
            <mxPoint x="430" y="-460" as="sourcePoint" />
            <mxPoint x="480" y="-510" as="targetPoint" />
          </mxGeometry>
        </mxCell>
        <mxCell id="rqwDStogeKvwR1cn4bST-8" value="Результаты анализов" style="edgeLabel;html=1;align=center;verticalAlign=middle;resizable=0;points=[];" parent="rqwDStogeKvwR1cn4bST-7" connectable="0" vertex="1">
          <mxGeometry x="0.0342" y="-3" relative="1" as="geometry">
            <mxPoint x="-64" y="21" as="offset" />
          </mxGeometry>
        </mxCell>
        <mxCell id="rqwDStogeKvwR1cn4bST-10" value="" style="endArrow=classic;html=1;rounded=0;exitX=0.75;exitY=1;exitDx=0;exitDy=0;entryX=0.25;entryY=1;entryDx=0;entryDy=0;edgeStyle=orthogonalEdgeStyle;curved=1;" parent="1" source="rhUK0AfXt017CsrgmApv-2" target="komNeLyyzliTDDAAMzvB-5" edge="1">
          <mxGeometry width="50" height="50" relative="1" as="geometry">
            <mxPoint x="430" y="-460" as="sourcePoint" />
            <mxPoint x="810" y="-400" as="targetPoint" />
            <Array as="points">
              <mxPoint x="512" y="-330" />
              <mxPoint x="885" y="-330" />
            </Array>
          </mxGeometry>
        </mxCell>
        <mxCell id="rqwDStogeKvwR1cn4bST-11" value="Готовые результаты анализов" style="edgeLabel;html=1;align=center;verticalAlign=middle;resizable=0;points=[];" parent="rqwDStogeKvwR1cn4bST-10" connectable="0" vertex="1">
          <mxGeometry x="0.3462" relative="1" as="geometry">
            <mxPoint x="-77" y="-5" as="offset" />
          </mxGeometry>
        </mxCell>
        <mxCell id="rqwDStogeKvwR1cn4bST-12" value="" style="endArrow=classic;html=1;rounded=0;entryX=0.004;entryY=0.134;entryDx=0;entryDy=0;entryPerimeter=0;exitX=1;exitY=0;exitDx=0;exitDy=0;" parent="1" source="rhUK0AfXt017CsrgmApv-2" target="komNeLyyzliTDDAAMzvB-5" edge="1">
          <mxGeometry width="50" height="50" relative="1" as="geometry">
            <mxPoint x="430" y="-480" as="sourcePoint" />
            <mxPoint x="480" y="-530" as="targetPoint" />
          </mxGeometry>
        </mxCell>
        <mxCell id="rqwDStogeKvwR1cn4bST-13" value="Уведомление о готовности анализов" style="edgeLabel;html=1;align=center;verticalAlign=middle;resizable=0;points=[];" parent="rqwDStogeKvwR1cn4bST-12" connectable="0" vertex="1">
          <mxGeometry x="-0.0065" relative="1" as="geometry">
            <mxPoint y="-1" as="offset" />
          </mxGeometry>
        </mxCell>
        <mxCell id="rqwDStogeKvwR1cn4bST-14" value="" style="endArrow=classic;html=1;rounded=0;exitX=0.611;exitY=1.009;exitDx=0;exitDy=0;entryX=0.132;entryY=1.033;entryDx=0;entryDy=0;exitPerimeter=0;entryPerimeter=0;edgeStyle=orthogonalEdgeStyle;curved=1;" parent="1" source="komNeLyyzliTDDAAMzvB-3" target="rhUK0AfXt017CsrgmApv-2" edge="1">
          <mxGeometry width="50" height="50" relative="1" as="geometry">
            <mxPoint x="590" y="-530" as="sourcePoint" />
            <mxPoint x="640" y="-580" as="targetPoint" />
          </mxGeometry>
        </mxCell>
        <mxCell id="rqwDStogeKvwR1cn4bST-15" value="Назначение на медикаментозное лечение" style="edgeLabel;html=1;align=center;verticalAlign=middle;resizable=0;points=[];" parent="rqwDStogeKvwR1cn4bST-14" connectable="0" vertex="1">
          <mxGeometry x="0.1737" relative="1" as="geometry">
            <mxPoint x="-25" y="10" as="offset" />
          </mxGeometry>
        </mxCell>
        <mxCell id="rqwDStogeKvwR1cn4bST-16" value="" style="endArrow=classic;html=1;rounded=0;entryX=-0.004;entryY=0.57;entryDx=0;entryDy=0;exitX=1;exitY=0.5;exitDx=0;exitDy=0;entryPerimeter=0;" parent="1" source="rhUK0AfXt017CsrgmApv-2" target="komNeLyyzliTDDAAMzvB-5" edge="1">
          <mxGeometry width="50" height="50" relative="1" as="geometry">
            <mxPoint x="590" y="-530" as="sourcePoint" />
            <mxPoint x="640" y="-580" as="targetPoint" />
          </mxGeometry>
        </mxCell>
        <mxCell id="rqwDStogeKvwR1cn4bST-17" value="Назначение на медикаментозное лечение" style="edgeLabel;html=1;align=center;verticalAlign=middle;resizable=0;points=[];" parent="rqwDStogeKvwR1cn4bST-16" connectable="0" vertex="1">
          <mxGeometry x="-0.7909" y="2" relative="1" as="geometry">
            <mxPoint x="110" y="-3" as="offset" />
          </mxGeometry>
        </mxCell>
      </root>
    </mxGraphModel>
  </diagram>
  <diagram id="5hfhekeH1kYWlCb4wukP" name="DFD логические">
    <mxGraphModel grid="1" page="1" gridSize="10" guides="1" tooltips="1" connect="1" arrows="1" fold="1" pageScale="1" pageWidth="827" pageHeight="1169" math="0" shadow="0">
      <root>
        <mxCell id="0" />
        <mxCell id="1" parent="0" />
        <mxCell id="a9Sl7O8uez9xCAdCzFx1-1" value="&lt;font style=&quot;font-size: 20px;&quot;&gt;Элементы для построения л&lt;span style=&quot;caret-color: rgb(0, 0, 0); text-align: start; text-size-adjust: auto;&quot; data-reactroot=&quot;&quot; class=&quot;notion-enable-hover&quot; data-token-index=&quot;0&quot;&gt;огических моделей потоков данных уровня 1&lt;/span&gt;&lt;/font&gt;" style="rounded=1;whiteSpace=wrap;html=1;verticalAlign=top;" vertex="1" parent="1">
          <mxGeometry x="14" y="-1120" width="800" height="320" as="geometry" />
        </mxCell>
        <mxCell id="a9Sl7O8uez9xCAdCzFx1-50" value="Пациент" style="html=1;fontSize=11;" vertex="1" parent="1">
          <mxGeometry x="40" y="-1070" width="110" height="50" as="geometry" />
        </mxCell>
        <mxCell id="a9Sl7O8uez9xCAdCzFx1-51" value="Врач" style="html=1;fontSize=11;" vertex="1" parent="1">
          <mxGeometry x="170" y="-1070" width="110" height="50" as="geometry" />
        </mxCell>
        <mxCell id="a9Sl7O8uez9xCAdCzFx1-52" value="Пациент" style="html=1;fontSize=11;" vertex="1" parent="1">
          <mxGeometry x="510" y="-1070" width="110" height="50" as="geometry" />
        </mxCell>
        <mxCell id="a9Sl7O8uez9xCAdCzFx1-53" value="Врач" style="html=1;fontSize=11;" vertex="1" parent="1">
          <mxGeometry x="640" y="-1070" width="110" height="50" as="geometry" />
        </mxCell>
        <mxCell id="a9Sl7O8uez9xCAdCzFx1-55" value="Лаборатория" style="html=1;fontSize=11;" vertex="1" parent="1">
          <mxGeometry x="100" y="-1010" width="110" height="50" as="geometry" />
        </mxCell>
        <mxCell id="JQqJk8gsrpiBfC45wu2H-1" value="&lt;h1&gt;&lt;font style=&quot;font-size: 40px;&quot;&gt;Задание&lt;/font&gt;&lt;/h1&gt;&lt;font style=&quot;font-size: 20px;&quot;&gt;Составьте две логические модели потоков данных 1 уровня из представленных элементов. По одной для каждого процесса.&lt;br&gt;&lt;/font&gt;&lt;p style=&quot;font-size: 20px;&quot;&gt;&lt;font style=&quot;font-size: 20px;&quot;&gt;Как выполнить задание:&lt;/font&gt;&lt;/p&gt;&lt;span style=&quot;font-size: 20px;&quot;&gt;1. Просмотрите MVP, которое вы составили, для изменений которые будут производиться в рамках этих доработок вам необходимо составить две логические модели потоков данных.&amp;nbsp;&lt;/span&gt;&lt;p style=&quot;font-size: 20px;&quot;&gt;2. Просмотрите доступные элементы (процесс и внешние сущности) для составления модели.&lt;span style=&quot;background-color: initial;&quot;&gt;&amp;nbsp;Корректно расставьте, соедините элементы потоками данных и подпишите получившиеся потоки.&amp;nbsp;&lt;/span&gt;&lt;/p&gt;&lt;p style=&quot;font-size: 20px;&quot;&gt;3. Добавьте в модели потоков данных к каждому процессу недостающие хранилища данных.&lt;/p&gt;&lt;p style=&quot;font-size: 20px;&quot;&gt;&lt;font style=&quot;font-size: 20px;&quot;&gt;4. Если вам не хватает информации в задании, то вы можете ее самостоятельно добавить в виде допущения&lt;/font&gt;&lt;/p&gt;&lt;p style=&quot;font-size: 20px;&quot;&gt;&lt;i&gt;Помните, что вы всегда можете оставить дополнительную информацию со своими размышлениями ревьюеру в виде пометок. Просто возьмите одну из карточек ниже.&amp;nbsp;&lt;/i&gt;&lt;/p&gt;&lt;p style=&quot;font-size: 20px;&quot;&gt;&lt;font style=&quot;font-size: 20px;&quot;&gt;5. Когда модели потоков данных будут готовы сохраните получившийся файл в формате .drawio, он понадобиться вам в части &quot;Ревью&quot;&lt;/font&gt;&lt;/p&gt;" style="text;html=1;strokeColor=#82b366;fillColor=#d5e8d4;spacing=5;spacingTop=-20;whiteSpace=wrap;overflow=hidden;rounded=0;fontSize=16;" vertex="1" parent="1">
          <mxGeometry x="-770" y="-1120" width="740" height="660" as="geometry" />
        </mxCell>
        <mxCell id="JQqJk8gsrpiBfC45wu2H-2" value="&lt;h1 style=&quot;font-size: 20px;&quot;&gt;&lt;font style=&quot;font-size: 20px;&quot;&gt;Заметка для ревьюера&lt;/font&gt;&lt;/h1&gt;&lt;p style=&quot;font-size: 20px;&quot;&gt;&lt;font style=&quot;font-size: 20px;&quot;&gt;Текст заметки&lt;/font&gt;&lt;/p&gt;" style="text;html=1;strokeColor=#d6b656;fillColor=#fff2cc;spacing=5;spacingTop=-20;whiteSpace=wrap;overflow=hidden;rounded=0;fontSize=20;" vertex="1" parent="1">
          <mxGeometry x="-770" y="-410" width="370" height="170" as="geometry" />
        </mxCell>
        <mxCell id="JQqJk8gsrpiBfC45wu2H-3" value="&lt;h1 style=&quot;font-size: 20px;&quot;&gt;&lt;font style=&quot;font-size: 20px;&quot;&gt;Заметка для ревьюера&lt;/font&gt;&lt;/h1&gt;&lt;p style=&quot;font-size: 20px;&quot;&gt;&lt;font style=&quot;font-size: 20px;&quot;&gt;Текст заметки&lt;/font&gt;&lt;/p&gt;" style="text;html=1;strokeColor=#d6b656;fillColor=#fff2cc;spacing=5;spacingTop=-20;whiteSpace=wrap;overflow=hidden;rounded=0;fontSize=20;" vertex="1" parent="1">
          <mxGeometry x="-760" y="-400" width="370" height="170" as="geometry" />
        </mxCell>
        <mxCell id="JQqJk8gsrpiBfC45wu2H-4" value="&lt;h1 style=&quot;font-size: 20px;&quot;&gt;&lt;font style=&quot;font-size: 20px;&quot;&gt;Заметка для ревьюера&lt;/font&gt;&lt;/h1&gt;&lt;p style=&quot;font-size: 20px;&quot;&gt;&lt;font style=&quot;font-size: 20px;&quot;&gt;Текст заметки&lt;/font&gt;&lt;/p&gt;" style="text;html=1;strokeColor=#d6b656;fillColor=#fff2cc;spacing=5;spacingTop=-20;whiteSpace=wrap;overflow=hidden;rounded=0;fontSize=20;" vertex="1" parent="1">
          <mxGeometry x="-750" y="-390" width="370" height="170" as="geometry" />
        </mxCell>
        <mxCell id="JQqJk8gsrpiBfC45wu2H-5" value="&lt;h1 style=&quot;font-size: 20px;&quot;&gt;&lt;font style=&quot;font-size: 20px;&quot;&gt;Заметка для ревьюера&lt;/font&gt;&lt;/h1&gt;&lt;p style=&quot;font-size: 20px;&quot;&gt;&lt;font style=&quot;font-size: 20px;&quot;&gt;Текст заметки&lt;/font&gt;&lt;/p&gt;" style="text;html=1;strokeColor=#d6b656;fillColor=#fff2cc;spacing=5;spacingTop=-20;whiteSpace=wrap;overflow=hidden;rounded=0;fontSize=20;" vertex="1" parent="1">
          <mxGeometry x="-740" y="-380" width="370" height="170" as="geometry" />
        </mxCell>
        <mxCell id="TyFQIvKSNbhwDLeUT2OL-1" value="1" style="swimlane;childLayout=stackLayout;horizontal=1;startSize=30;horizontalStack=0;rounded=1;fontSize=14;fontStyle=0;strokeWidth=1;resizeParent=0;resizeLast=1;shadow=0;dashed=0;align=center;fillColor=#FFFFFF;" vertex="1" parent="1">
          <mxGeometry x="80" y="-940" width="150" height="110" as="geometry" />
        </mxCell>
        <mxCell id="TyFQIvKSNbhwDLeUT2OL-2" value="Пройти обследование" style="align=center;strokeColor=none;fillColor=none;spacingLeft=4;fontSize=12;verticalAlign=middle;resizable=0;rotatable=0;part=1;" vertex="1" parent="TyFQIvKSNbhwDLeUT2OL-1">
          <mxGeometry y="30" width="150" height="80" as="geometry" />
        </mxCell>
        <mxCell id="jfRJq12P8PdNFq7zpwv4-1" value="2" style="swimlane;childLayout=stackLayout;horizontal=1;startSize=30;horizontalStack=0;rounded=1;fontSize=14;fontStyle=0;strokeWidth=1;resizeParent=0;resizeLast=1;shadow=0;dashed=0;align=center;fillColor=#FFFFFF;" vertex="1" parent="1">
          <mxGeometry x="560" y="-1000" width="150" height="110" as="geometry" />
        </mxCell>
        <mxCell id="jfRJq12P8PdNFq7zpwv4-2" value="Пройти&#xa;медикаментозное &#xa;лечение" style="align=center;strokeColor=none;fillColor=none;spacingLeft=4;fontSize=12;verticalAlign=middle;resizable=0;rotatable=0;part=1;" vertex="1" parent="jfRJq12P8PdNFq7zpwv4-1">
          <mxGeometry y="30" width="150" height="80" as="geometry" />
        </mxCell>
        <mxCell id="L70A5ztjR8rKNJokJIc0-8" value="Пациент" style="html=1;fontSize=11;" vertex="1" parent="1">
          <mxGeometry x="2170" y="-470" width="120" height="80" as="geometry" />
        </mxCell>
        <mxCell id="L70A5ztjR8rKNJokJIc0-9" value="Врач" style="html=1;fontSize=11;" vertex="1" parent="1">
          <mxGeometry x="1270" y="-445" width="110" height="50" as="geometry" />
        </mxCell>
        <mxCell id="L70A5ztjR8rKNJokJIc0-10" value="2" style="swimlane;childLayout=stackLayout;horizontal=1;startSize=30;horizontalStack=0;rounded=1;fontSize=14;fontStyle=0;strokeWidth=1;resizeParent=0;resizeLast=1;shadow=0;dashed=0;align=center;fillColor=#FFFFFF;" vertex="1" parent="1">
          <mxGeometry x="1680" y="-475" width="150" height="110" as="geometry" />
        </mxCell>
        <mxCell id="L70A5ztjR8rKNJokJIc0-11" value="Пройти&#xa;медикаментозное &#xa;лечение" style="align=center;strokeColor=none;fillColor=none;spacingLeft=4;fontSize=12;verticalAlign=middle;resizable=0;rotatable=0;part=1;" vertex="1" parent="L70A5ztjR8rKNJokJIc0-10">
          <mxGeometry y="30" width="150" height="80" as="geometry" />
        </mxCell>
        <mxCell id="L70A5ztjR8rKNJokJIc0-12" value="" style="endArrow=classic;html=1;rounded=0;exitX=1;exitY=0.5;exitDx=0;exitDy=0;entryX=-0.002;entryY=0.334;entryDx=0;entryDy=0;entryPerimeter=0;" edge="1" parent="1" source="L70A5ztjR8rKNJokJIc0-9" target="L70A5ztjR8rKNJokJIc0-11">
          <mxGeometry width="50" height="50" relative="1" as="geometry">
            <mxPoint x="1450" y="-250" as="sourcePoint" />
            <mxPoint x="1500" y="-300" as="targetPoint" />
          </mxGeometry>
        </mxCell>
        <mxCell id="L70A5ztjR8rKNJokJIc0-13" value="&lt;font style=&quot;vertical-align: inherit;&quot;&gt;&lt;font style=&quot;vertical-align: inherit;&quot;&gt;Назначение на медикаментозное лечение&lt;/font&gt;&lt;/font&gt;" style="edgeLabel;html=1;align=center;verticalAlign=middle;resizable=0;points=[];" vertex="1" connectable="0" parent="L70A5ztjR8rKNJokJIc0-12">
          <mxGeometry x="-0.4858" y="-3" relative="1" as="geometry">
            <mxPoint x="73" y="-13" as="offset" />
          </mxGeometry>
        </mxCell>
        <mxCell id="6K7-s2O2QnYuFedG0h4t-11" value="" style="endArrow=classic;html=1;rounded=0;exitX=1;exitY=0.25;exitDx=0;exitDy=0;entryX=0.012;entryY=0.558;entryDx=0;entryDy=0;entryPerimeter=0;" edge="1" parent="1" source="L70A5ztjR8rKNJokJIc0-11" target="L70A5ztjR8rKNJokJIc0-8">
          <mxGeometry width="50" height="50" relative="1" as="geometry">
            <mxPoint x="1600" y="-150" as="sourcePoint" />
            <mxPoint x="1650" y="-200" as="targetPoint" />
          </mxGeometry>
        </mxCell>
        <mxCell id="6K7-s2O2QnYuFedG0h4t-12" value="Назначение на медикаментозное лечение" style="edgeLabel;html=1;align=center;verticalAlign=middle;resizable=0;points=[];" connectable="0" vertex="1" parent="6K7-s2O2QnYuFedG0h4t-11">
          <mxGeometry x="0.3235" y="1" relative="1" as="geometry">
            <mxPoint x="-95" y="-6" as="offset" />
          </mxGeometry>
        </mxCell>
        <mxCell id="tlpzsxxJ8cz3qUtW_Xs9-31" value="D1" style="html=1;dashed=0;whiteSpace=wrap;shape=mxgraph.dfd.dataStoreID;align=left;spacingLeft=3;points=[[0,0],[0.5,0],[1,0],[0,0.5],[1,0.5],[0,1],[0.5,1],[1,1]];" vertex="1" parent="1">
          <mxGeometry x="1685" y="-650" width="100" height="30" as="geometry" />
        </mxCell>
        <mxCell id="tlpzsxxJ8cz3qUtW_Xs9-32" value="Данные пациента" style="text;html=1;align=center;verticalAlign=middle;whiteSpace=wrap;rounded=0;" vertex="1" parent="1">
          <mxGeometry x="1725" y="-650" width="110" height="30" as="geometry" />
        </mxCell>
        <mxCell id="tlpzsxxJ8cz3qUtW_Xs9-33" value="Данные пациента" style="endArrow=classic;html=1;rounded=0;exitX=0.25;exitY=1;exitDx=0;exitDy=0;entryX=0.48;entryY=-0.002;entryDx=0;entryDy=0;entryPerimeter=0;" edge="1" parent="1" source="tlpzsxxJ8cz3qUtW_Xs9-32" target="L70A5ztjR8rKNJokJIc0-10">
          <mxGeometry x="-0.014" y="10" width="50" height="50" relative="1" as="geometry">
            <mxPoint x="1778" y="-590" as="sourcePoint" />
            <mxPoint x="1710" y="-510" as="targetPoint" />
            <mxPoint as="offset" />
          </mxGeometry>
        </mxCell>
        <mxCell id="ON08YwDZ9W8FQqUgZkx1-6" value="Пациент" style="html=1;fontSize=11;" vertex="1" parent="1">
          <mxGeometry x="770" y="-520" width="140" height="90" as="geometry" />
        </mxCell>
        <mxCell id="ON08YwDZ9W8FQqUgZkx1-7" value="Лаборатория" style="html=1;fontSize=11;" vertex="1" parent="1">
          <mxGeometry x="450" y="-660" width="110" height="50" as="geometry" />
        </mxCell>
        <mxCell id="ON08YwDZ9W8FQqUgZkx1-8" value="1" style="swimlane;childLayout=stackLayout;horizontal=1;startSize=30;horizontalStack=0;rounded=1;fontSize=14;fontStyle=0;strokeWidth=1;resizeParent=0;resizeLast=1;shadow=0;dashed=0;align=center;fillColor=#FFFFFF;" vertex="1" parent="1">
          <mxGeometry x="430" y="-530" width="150" height="110" as="geometry" />
        </mxCell>
        <mxCell id="ON08YwDZ9W8FQqUgZkx1-9" value="Пройти обследование" style="align=center;strokeColor=none;fillColor=none;spacingLeft=4;fontSize=12;verticalAlign=middle;resizable=0;rotatable=0;part=1;" vertex="1" parent="ON08YwDZ9W8FQqUgZkx1-8">
          <mxGeometry y="30" width="150" height="80" as="geometry" />
        </mxCell>
        <mxCell id="ON08YwDZ9W8FQqUgZkx1-10" value="" style="endArrow=classic;html=1;rounded=0;exitX=0.997;exitY=0.4;exitDx=0;exitDy=0;entryX=-0.012;entryY=0.342;entryDx=0;entryDy=0;exitPerimeter=0;entryPerimeter=0;" edge="1" parent="1" target="ON08YwDZ9W8FQqUgZkx1-9">
          <mxGeometry width="50" height="50" relative="1" as="geometry">
            <mxPoint x="230" y="-474" as="sourcePoint" />
            <mxPoint x="420" y="-474" as="targetPoint" />
          </mxGeometry>
        </mxCell>
        <mxCell id="ON08YwDZ9W8FQqUgZkx1-11" value="&lt;font style=&quot;vertical-align: inherit;&quot;&gt;&lt;font style=&quot;vertical-align: inherit;&quot;&gt;&lt;font style=&quot;vertical-align: inherit;&quot;&gt;&lt;font style=&quot;vertical-align: inherit;&quot;&gt;Назначение на обследование&lt;/font&gt;&lt;/font&gt;&lt;/font&gt;&lt;/font&gt;" style="edgeLabel;html=1;align=center;verticalAlign=middle;resizable=0;points=[];" connectable="0" vertex="1" parent="ON08YwDZ9W8FQqUgZkx1-10">
          <mxGeometry x="-0.2788" relative="1" as="geometry">
            <mxPoint x="22" as="offset" />
          </mxGeometry>
        </mxCell>
        <mxCell id="ON08YwDZ9W8FQqUgZkx1-15" value="" style="endArrow=classic;html=1;rounded=0;entryX=0.015;entryY=0.29;entryDx=0;entryDy=0;entryPerimeter=0;exitX=1.004;exitY=0.07;exitDx=0;exitDy=0;exitPerimeter=0;" edge="1" parent="1" source="ON08YwDZ9W8FQqUgZkx1-9" target="ON08YwDZ9W8FQqUgZkx1-6">
          <mxGeometry width="50" height="50" relative="1" as="geometry">
            <mxPoint x="610" y="-500" as="sourcePoint" />
            <mxPoint x="767.1999999999998" y="-499.99999999999994" as="targetPoint" />
          </mxGeometry>
        </mxCell>
        <mxCell id="ON08YwDZ9W8FQqUgZkx1-19" value="&lt;font style=&quot;font-size: 9px;&quot;&gt;Назначение&amp;nbsp;&lt;/font&gt;&lt;div&gt;&lt;font style=&quot;font-size: 9px;&quot;&gt;на обследование&lt;/font&gt;&lt;/div&gt;" style="edgeLabel;html=1;align=center;verticalAlign=middle;resizable=0;points=[];" connectable="0" vertex="1" parent="1">
          <mxGeometry x="589.9980465146641" y="-380.00158632681087" as="geometry">
            <mxPoint x="80" y="-117" as="offset" />
          </mxGeometry>
        </mxCell>
        <mxCell id="ON08YwDZ9W8FQqUgZkx1-20" value="D1" style="html=1;dashed=0;whiteSpace=wrap;shape=mxgraph.dfd.dataStoreID;align=left;spacingLeft=3;points=[[0,0],[0.5,0],[1,0],[0,0.5],[1,0.5],[0,1],[0.5,1],[1,1]];" vertex="1" parent="1">
          <mxGeometry x="450" y="-290" width="95" height="30" as="geometry" />
        </mxCell>
        <mxCell id="ON08YwDZ9W8FQqUgZkx1-21" value="Расписание процедурного кабинета" style="text;html=1;align=left;verticalAlign=middle;whiteSpace=wrap;rounded=0;" vertex="1" parent="1">
          <mxGeometry x="483.5" y="-290" width="165" height="30" as="geometry" />
        </mxCell>
        <mxCell id="ON08YwDZ9W8FQqUgZkx1-24" value="" style="endArrow=classic;html=1;rounded=0;exitX=0.835;exitY=0.986;exitDx=0;exitDy=0;entryX=0.25;entryY=1;entryDx=0;entryDy=0;edgeStyle=orthogonalEdgeStyle;curved=1;exitPerimeter=0;" edge="1" parent="1" source="ON08YwDZ9W8FQqUgZkx1-9" target="ON08YwDZ9W8FQqUgZkx1-6">
          <mxGeometry width="50" height="50" relative="1" as="geometry">
            <mxPoint x="620" y="-560" as="sourcePoint" />
            <mxPoint x="670" y="-610" as="targetPoint" />
            <Array as="points">
              <mxPoint x="580" y="-421" />
              <mxPoint x="580" y="-400" />
              <mxPoint x="805" y="-400" />
            </Array>
          </mxGeometry>
        </mxCell>
        <mxCell id="ON08YwDZ9W8FQqUgZkx1-26" value="&lt;font style=&quot;font-size: 9px;&quot;&gt;Расписание&amp;nbsp;&lt;/font&gt;&lt;div&gt;&lt;font style=&quot;font-size: 9px;&quot;&gt;процедурного кабинета&lt;/font&gt;&lt;/div&gt;" style="edgeLabel;html=1;align=center;verticalAlign=middle;resizable=0;points=[];" connectable="0" vertex="1" parent="1">
          <mxGeometry x="685.0034515489369" y="-379.9974746718067" as="geometry">
            <mxPoint x="-4" y="-14" as="offset" />
          </mxGeometry>
        </mxCell>
        <mxCell id="ON08YwDZ9W8FQqUgZkx1-34" value="" style="endArrow=classic;html=1;rounded=0;entryX=0.25;entryY=1;entryDx=0;entryDy=0;exitX=0.158;exitY=-0.03;exitDx=0;exitDy=0;exitPerimeter=0;" edge="1" parent="1" source="ON08YwDZ9W8FQqUgZkx1-20" target="ON08YwDZ9W8FQqUgZkx1-9">
          <mxGeometry width="50" height="50" relative="1" as="geometry">
            <mxPoint x="700" y="-674.41" as="sourcePoint" />
            <mxPoint x="648.7999999999997" y="-609.9999999999999" as="targetPoint" />
          </mxGeometry>
        </mxCell>
        <mxCell id="ON08YwDZ9W8FQqUgZkx1-35" value="&lt;font style=&quot;font-size: 9px;&quot;&gt;Расписание работы&amp;nbsp;&lt;/font&gt;&lt;div&gt;&lt;font style=&quot;font-size: 9px;&quot;&gt;процедурного кабинета&lt;/font&gt;&lt;/div&gt;" style="edgeLabel;html=1;align=center;verticalAlign=middle;resizable=0;points=[];" connectable="0" vertex="1" parent="ON08YwDZ9W8FQqUgZkx1-34">
          <mxGeometry x="-0.0528" relative="1" as="geometry">
            <mxPoint y="-13" as="offset" />
          </mxGeometry>
        </mxCell>
        <mxCell id="ON08YwDZ9W8FQqUgZkx1-54" value="Врач" style="html=1;fontSize=11;" vertex="1" parent="1">
          <mxGeometry x="120" y="-500" width="110" height="50" as="geometry" />
        </mxCell>
        <mxCell id="ON08YwDZ9W8FQqUgZkx1-57" value="" style="endArrow=classic;html=1;rounded=0;entryX=0.25;entryY=0;entryDx=0;entryDy=0;exitX=0.63;exitY=1.017;exitDx=0;exitDy=0;exitPerimeter=0;" edge="1" parent="1">
          <mxGeometry width="50" height="50" relative="1" as="geometry">
            <mxPoint x="530" y="-419.9999999999999" as="sourcePoint" />
            <mxPoint x="530.25" y="-291.36" as="targetPoint" />
          </mxGeometry>
        </mxCell>
        <mxCell id="ON08YwDZ9W8FQqUgZkx1-58" value="&lt;font style=&quot;font-size: 9px;&quot;&gt;График работы врача&lt;/font&gt;&lt;div&gt;&lt;font style=&quot;font-size: 9px;&quot;&gt;процедурного&lt;/font&gt;&lt;/div&gt;&lt;div&gt;&lt;font style=&quot;font-size: 9px;&quot;&gt;кабинета&lt;/font&gt;&lt;/div&gt;" style="edgeLabel;html=1;align=center;verticalAlign=middle;resizable=0;points=[];" connectable="0" vertex="1" parent="ON08YwDZ9W8FQqUgZkx1-57">
          <mxGeometry x="-0.0528" relative="1" as="geometry">
            <mxPoint x="4" y="49" as="offset" />
          </mxGeometry>
        </mxCell>
        <mxCell id="ON08YwDZ9W8FQqUgZkx1-59" value="" style="endArrow=classic;html=1;rounded=0;exitX=0.5;exitY=1;exitDx=0;exitDy=0;entryX=0.5;entryY=0;entryDx=0;entryDy=0;" edge="1" parent="1" source="ON08YwDZ9W8FQqUgZkx1-7" target="ON08YwDZ9W8FQqUgZkx1-8">
          <mxGeometry width="50" height="50" relative="1" as="geometry">
            <mxPoint x="470" y="-554" as="sourcePoint" />
            <mxPoint x="520" y="-604" as="targetPoint" />
          </mxGeometry>
        </mxCell>
        <mxCell id="ON08YwDZ9W8FQqUgZkx1-60" value="&lt;font style=&quot;font-size: 9px;&quot;&gt;Результаты&lt;/font&gt;&lt;div&gt;&lt;font style=&quot;font-size: 9px;&quot;&gt;анализов&lt;/font&gt;&lt;/div&gt;" style="edgeLabel;html=1;align=center;verticalAlign=middle;resizable=0;points=[];" connectable="0" vertex="1" parent="ON08YwDZ9W8FQqUgZkx1-59">
          <mxGeometry x="-0.1387" relative="1" as="geometry">
            <mxPoint y="-9" as="offset" />
          </mxGeometry>
        </mxCell>
        <mxCell id="ON08YwDZ9W8FQqUgZkx1-61" value="" style="endArrow=classic;html=1;rounded=0;entryX=0.259;entryY=-0.033;entryDx=0;entryDy=0;entryPerimeter=0;exitX=0.815;exitY=0.006;exitDx=0;exitDy=0;exitPerimeter=0;edgeStyle=orthogonalEdgeStyle;curved=1;" edge="1" parent="1" source="ON08YwDZ9W8FQqUgZkx1-8" target="ON08YwDZ9W8FQqUgZkx1-6">
          <mxGeometry width="50" height="50" relative="1" as="geometry">
            <mxPoint x="580" y="-512" as="sourcePoint" />
            <mxPoint x="767" y="-514" as="targetPoint" />
            <Array as="points">
              <mxPoint x="552" y="-560" />
              <mxPoint x="806" y="-560" />
            </Array>
          </mxGeometry>
        </mxCell>
        <mxCell id="ON08YwDZ9W8FQqUgZkx1-62" value="&lt;font style=&quot;font-size: 9px;&quot;&gt;Готовые результаты анализов&lt;/font&gt;" style="edgeLabel;html=1;align=center;verticalAlign=middle;resizable=0;points=[];" connectable="0" vertex="1" parent="ON08YwDZ9W8FQqUgZkx1-61">
          <mxGeometry x="0.0403" relative="1" as="geometry">
            <mxPoint x="-8" as="offset" />
          </mxGeometry>
        </mxCell>
        <mxCell id="wQR4z2GORKJV2QPRhzok-1" value="D1 &quot;Данные пациента&quot; заполняется при заполнении личных данных в кабинете или подписании договора с Клиникой" style="shape=note;whiteSpace=wrap;html=1;backgroundOutline=1;darkOpacity=0.05;fillColor=#fff2cc;strokeColor=#d6b656;" vertex="1" parent="1">
          <mxGeometry x="1725" y="-830" width="175" height="150" as="geometry" />
        </mxCell>
        <mxCell id="odPKl5V5-aE7pzabFQJq-1" value="" style="endArrow=classic;html=1;rounded=0;entryX=0;entryY=0.75;entryDx=0;entryDy=0;" edge="1" parent="1" target="ON08YwDZ9W8FQqUgZkx1-6">
          <mxGeometry width="50" height="50" relative="1" as="geometry">
            <mxPoint x="580" y="-448" as="sourcePoint" />
            <mxPoint x="767" y="-450" as="targetPoint" />
          </mxGeometry>
        </mxCell>
        <mxCell id="odPKl5V5-aE7pzabFQJq-2" value="&lt;font style=&quot;font-size: 9px;&quot;&gt;Уведомление о готовности&lt;/font&gt;&lt;div&gt;&lt;font style=&quot;font-size: 9px;&quot;&gt;анализов&lt;/font&gt;&lt;/div&gt;" style="edgeLabel;html=1;align=center;verticalAlign=middle;resizable=0;points=[];" connectable="0" vertex="1" parent="odPKl5V5-aE7pzabFQJq-1">
          <mxGeometry x="0.2259" y="1" relative="1" as="geometry">
            <mxPoint x="-6" y="12" as="offset" />
          </mxGeometry>
        </mxCell>
        <mxCell id="odPKl5V5-aE7pzabFQJq-53" value="D2" style="html=1;dashed=0;whiteSpace=wrap;shape=mxgraph.dfd.dataStoreID;align=left;spacingLeft=3;points=[[0,0],[0.5,0],[1,0],[0,0.5],[1,0.5],[0,1],[0.5,1],[1,1]];" vertex="1" parent="1">
          <mxGeometry x="195" y="-660" width="100" height="30" as="geometry" />
        </mxCell>
        <mxCell id="odPKl5V5-aE7pzabFQJq-54" value="Результаты анализов" style="text;html=1;align=center;verticalAlign=middle;whiteSpace=wrap;rounded=0;" vertex="1" parent="1">
          <mxGeometry x="235" y="-660" width="130" height="30" as="geometry" />
        </mxCell>
        <mxCell id="odPKl5V5-aE7pzabFQJq-55" value="" style="endArrow=classic;html=1;rounded=0;exitX=0;exitY=0;exitDx=0;exitDy=0;entryX=0.16;entryY=1;entryDx=0;entryDy=0;entryPerimeter=0;" edge="1" parent="1" source="ON08YwDZ9W8FQqUgZkx1-9" target="odPKl5V5-aE7pzabFQJq-53">
          <mxGeometry width="50" height="50" relative="1" as="geometry">
            <mxPoint x="430" y="-510" as="sourcePoint" />
            <mxPoint x="270" y="-590" as="targetPoint" />
          </mxGeometry>
        </mxCell>
        <mxCell id="odPKl5V5-aE7pzabFQJq-57" value="&lt;font style=&quot;font-size: 9px;&quot;&gt;Новый результат&lt;/font&gt;&lt;div&gt;&lt;font style=&quot;font-size: 9px;&quot;&gt;анализа&lt;/font&gt;&lt;/div&gt;" style="edgeLabel;html=1;align=center;verticalAlign=middle;resizable=0;points=[];" connectable="0" vertex="1" parent="odPKl5V5-aE7pzabFQJq-55">
          <mxGeometry x="0.0824" relative="1" as="geometry">
            <mxPoint x="22" y="30" as="offset" />
          </mxGeometry>
        </mxCell>
        <mxCell id="odPKl5V5-aE7pzabFQJq-56" value="" style="endArrow=classic;html=1;rounded=0;exitX=0.315;exitY=1.064;exitDx=0;exitDy=0;exitPerimeter=0;entryX=0.023;entryY=0.052;entryDx=0;entryDy=0;entryPerimeter=0;" edge="1" parent="1" source="odPKl5V5-aE7pzabFQJq-54" target="ON08YwDZ9W8FQqUgZkx1-8">
          <mxGeometry width="50" height="50" relative="1" as="geometry">
            <mxPoint x="483" y="-511" as="sourcePoint" />
            <mxPoint x="400" y="-580" as="targetPoint" />
          </mxGeometry>
        </mxCell>
        <mxCell id="odPKl5V5-aE7pzabFQJq-58" value="&lt;font style=&quot;font-size: 9px;&quot;&gt;Готовые результаты&lt;/font&gt;&lt;div&gt;&lt;font style=&quot;font-size: 9px;&quot;&gt;анализов&lt;/font&gt;&lt;/div&gt;" style="edgeLabel;html=1;align=center;verticalAlign=middle;resizable=0;points=[];" connectable="0" vertex="1" parent="odPKl5V5-aE7pzabFQJq-56">
          <mxGeometry x="-0.0499" relative="1" as="geometry">
            <mxPoint x="-11" y="-21" as="offset" />
          </mxGeometry>
        </mxCell>
        <mxCell id="BadLTdnTJmVmteHAOGW8-1" value="D3" style="html=1;dashed=0;whiteSpace=wrap;shape=mxgraph.dfd.dataStoreID;align=left;spacingLeft=3;points=[[0,0],[0.5,0],[1,0],[0,0.5],[1,0.5],[0,1],[0.5,1],[1,1]];" vertex="1" parent="1">
          <mxGeometry x="210" y="-370" width="100" height="30" as="geometry" />
        </mxCell>
        <mxCell id="BadLTdnTJmVmteHAOGW8-2" value="Данные пациента" style="text;html=1;align=center;verticalAlign=middle;whiteSpace=wrap;rounded=0;" vertex="1" parent="1">
          <mxGeometry x="250" y="-370" width="110" height="30" as="geometry" />
        </mxCell>
        <mxCell id="odPKl5V5-aE7pzabFQJq-63" value="" style="endArrow=classic;html=1;rounded=0;entryX=0.004;entryY=0.92;entryDx=0;entryDy=0;entryPerimeter=0;exitX=0.5;exitY=0;exitDx=0;exitDy=0;" edge="1" parent="1" source="BadLTdnTJmVmteHAOGW8-2" target="ON08YwDZ9W8FQqUgZkx1-9">
          <mxGeometry width="50" height="50" relative="1" as="geometry">
            <mxPoint x="350" y="-350" as="sourcePoint" />
            <mxPoint x="400" y="-400" as="targetPoint" />
          </mxGeometry>
        </mxCell>
        <mxCell id="odPKl5V5-aE7pzabFQJq-66" value="Данные пациента" style="edgeLabel;html=1;align=center;verticalAlign=middle;resizable=0;points=[];" connectable="0" vertex="1" parent="odPKl5V5-aE7pzabFQJq-63">
          <mxGeometry x="-0.0455" relative="1" as="geometry">
            <mxPoint y="7" as="offset" />
          </mxGeometry>
        </mxCell>
        <mxCell id="BadLTdnTJmVmteHAOGW8-3" value="D3 &quot;Данные пациента&quot; заполняется при заполнении личных данных в кабинете или подписании договора с Клиникой" style="shape=note;whiteSpace=wrap;html=1;backgroundOutline=1;darkOpacity=0.05;fillColor=#fff2cc;strokeColor=#d6b656;" vertex="1" parent="1">
          <mxGeometry x="20" y="-360" width="175" height="150" as="geometry" />
        </mxCell>
      </root>
    </mxGraphModel>
  </diagram>
</mxfile>
